<?xml version="1.0" encoding="UTF-8" standalone="no"?>
<!DOCTYPE svg PUBLIC "-//W3C//DTD SVG 1.1//EN" "http://www.w3.org/Graphics/SVG/1.1/DTD/svg11.dtd">
<svg width="100%" height="100%" viewBox="0 0 1594 900" version="1.1" xmlns="http://www.w3.org/2000/svg" xmlns:xlink="http://www.w3.org/1999/xlink" xml:space="preserve" xmlns:serif="http://www.serif.com/" style="fill-rule:evenodd;clip-rule:evenodd;stroke-linecap:round;stroke-linejoin:round;stroke-miterlimit:1.5;">
    <g transform="matrix(1,0,0,1,0,-1080.14)">
        <g id="Artboard2" transform="matrix(1,0,0,1.01001,-6.05385,84.5869)">
            <rect x="6.054" y="985.692" width="1593.95" height="890.246" style="fill:none;"/>
            <clipPath id="_clip1">
                <rect x="6.054" y="985.692" width="1593.95" height="890.246"/>
            </clipPath>
            <g clip-path="url(#_clip1)">
                <g transform="matrix(1.02027,0,0,1.0307,-26.2545,-154.094)">
                    <rect x="31.667" y="1105.84" width="1562.28" height="864.546" style="fill:white;"/>
                </g>
                <g transform="matrix(1.2653,0,0,1.25277,-368.464,-558.139)">
                    <circle cx="1382.27" cy="1838.61" r="19.864" style="fill:rgb(255,221,210);"/>
                </g>
                <g transform="matrix(1,0,0,0.990094,6.05385,-67.5236)">
                    <path d="M-0,1198.31C-0,1198.31 326.403,1185.22 681.281,1222.86C977.227,1254.25 1282.52,1299.5 1593.95,1325.51L1593.95,1745.94C1593.95,1745.94 1176.35,1780.78 923.425,1806.51C437.704,1855.91 -0,1847.48 -0,1847.48L-0,1198.31Z" style="fill:rgb(181,100,69);"/>
                </g>
                <g transform="matrix(1,0,0,0.990094,6.05385,-98.9591)">
                    <path d="M-0,1198.31C-0,1198.31 326.403,1185.22 681.281,1222.86C977.227,1254.25 1282.52,1299.5 1593.95,1325.51L1593.95,1745.94C1593.95,1745.94 1176.35,1780.78 923.425,1806.51C437.704,1855.91 -0,1847.48 -0,1847.48L-0,1198.31Z" style="fill:rgb(226,149,120);"/>
                </g>
                <g transform="matrix(1,0,0,0.990094,6.05385,-67.5236)">
                    <path d="M-0,1198.31C-0,1198.31 326.403,1185.22 681.281,1222.86C977.227,1254.25 1282.52,1299.5 1593.95,1325.51L1593.95,1745.94C1593.95,1745.94 1176.35,1780.78 923.425,1806.51C437.704,1855.91 -0,1847.48 -0,1847.48L-0,1198.31Z" style="fill:rgb(181,100,69);"/>
                </g>
                <g transform="matrix(1,0,0,0.990094,190.713,-9.46904)">
                    <circle cx="1329.23" cy="1860.03" r="102.385" style="fill:rgb(226,149,120);"/>
                </g>
                <g transform="matrix(-1.09466,0.0706926,0.065868,-1.03936,1572.42,1863.57)">
                    <path d="M123.444,-30.425L-24.774,76.748" style="fill:none;stroke:white;stroke-width:25.92px;"/>
                </g>
                <g transform="matrix(-1.29353,0.213846,0.209671,-1.14287,1551.86,1829.59)">
                    <path d="M123.444,-30.425L-24.774,76.748" style="fill:none;stroke:white;stroke-width:16.21px;"/>
                </g>
                <g transform="matrix(-1.20574,0.15065,0.146188,-1.09718,1533.85,1807.5)">
                    <path d="M123.444,-30.425L-24.774,76.748" style="fill:none;stroke:white;stroke-width:10.24px;"/>
                </g>
                <g transform="matrix(-1.15406,0.113448,0.108817,-1.07027,1514.48,1796.42)">
                    <path d="M123.444,-30.425L-24.774,76.748" style="fill:none;stroke:white;stroke-width:7.07px;"/>
                </g>
                <g transform="matrix(1.1056,0,0,1.09465,-56.0917,-275.443)">
                    <circle cx="1270.96" cy="1912.81" r="33.209" style="fill:rgb(0,109,119);"/>
                </g>
            </g>
        </g>
    </g>
</svg>
