<?xml version="1.0" encoding="UTF-8" standalone="no"?><!DOCTYPE svg PUBLIC "-//W3C//DTD SVG 1.1//EN" "http://www.w3.org/Graphics/SVG/1.1/DTD/svg11.dtd"><svg width="100%" height="100%" viewBox="0 0 480 900" version="1.1" xmlns="http://www.w3.org/2000/svg" xmlns:xlink="http://www.w3.org/1999/xlink" xml:space="preserve" xmlns:serif="http://www.serif.com/" style="fill-rule:evenodd;clip-rule:evenodd;stroke-linecap:round;stroke-linejoin:round;stroke-miterlimit:1.5;"><rect id="Artboard3" x="-0" y="0" width="479.191" height="899.154" style="fill:none;"/><clipPath id="_clip1"><rect x="-0" y="0" width="479.191" height="899.154"/></clipPath><g clip-path="url(#_clip1)"><rect id="bg" x="-0" y="0" width="479.191" height="899.154" style="fill:#fff;"/><ellipse cx="630.19" cy="920.086" rx="326.321" ry="340.096" style="fill:#83c5be;"/><g><ellipse cx="41.255" cy="15.405" rx="110.769" ry="116.163" style="fill:#b56445;"/><path d="M116.277,-38.485l-150.043,145.956" style="fill:none;stroke:#fff;stroke-width:7.5px;"/><path d="M176.388,-39.963l-189.824,184.654" style="fill:none;stroke:#fff;stroke-width:9.3px;"/><path d="M188.441,-10.811l-172.262,167.571" style="fill:none;stroke:#fff;stroke-width:6px;"/></g><path d="M216.663,130.656c-25.715,2.655 -48.748,-16.066 -51.404,-41.781c-2.656,-25.715 16.065,-48.748 41.78,-51.404c25.715,-2.656 48.749,16.065 51.405,41.78c2.655,25.715 -16.066,48.749 -41.781,51.405Z" style="fill:#006d77;"/><path d="M125.934,200c-16.465,1.701 -31.213,-10.286 -32.914,-26.752c-1.7,-16.465 10.287,-31.214 26.752,-32.914c16.466,-1.701 31.214,10.286 32.915,26.752c1.7,16.465 -10.287,31.214 -26.753,32.914Z" style="fill:#ffddd2;"/></g></svg>