<?xml version="1.0" encoding="UTF-8" standalone="no"?><!DOCTYPE svg PUBLIC "-//W3C//DTD SVG 1.1//EN" "http://www.w3.org/Graphics/SVG/1.1/DTD/svg11.dtd"><svg width="100%" height="100%" viewBox="0 0 1600 900" version="1.1" xmlns="http://www.w3.org/2000/svg" xmlns:xlink="http://www.w3.org/1999/xlink" xml:space="preserve" xmlns:serif="http://www.serif.com/" style="fill-rule:evenodd;clip-rule:evenodd;stroke-linecap:round;stroke-linejoin:round;stroke-miterlimit:1.5;"><rect id="Artboard1" x="0" y="0" width="1600" height="900" style="fill:none;"/><clipPath id="_clip1"><rect id="Artboard11" serif:id="Artboard1" x="0" y="0" width="1600" height="900"/></clipPath><g clip-path="url(#_clip1)"><rect x="0" y="0" width="1600" height="900" style="fill:#fff;"/><circle cx="78.297" cy="254.626" r="46.631" style="fill:#006d77;"/><ellipse cx="73.587" cy="48.721" rx="130.493" ry="132.135" style="fill:#b56445;"/><path d="M142.002,-17.073l-150.043,145.956" style="fill:none;stroke:#fff;stroke-width:19.92px;"/><path d="M195.878,-18.964l-189.824,184.654" style="fill:none;stroke:#fff;stroke-width:9.3px;"/><path d="M204.081,13.285l-172.263,167.571" style="fill:none;stroke:#fff;stroke-width:10.34px;"/><path d="M225.3,35.611l-161.924,157.514" style="fill:none;stroke:#fff;stroke-width:7.12px;"/><circle cx="181.501" cy="207.995" r="25.541" style="fill:#ffddd2;"/><circle cx="1475.44" cy="791.397" r="36.056" style="fill:#ffddd2;"/><path d="M1535.39,708.442c-31.056,24.901 -76.486,19.903 -101.387,-11.153c-24.901,-31.056 -19.903,-76.485 11.153,-101.386c31.056,-24.901 76.485,-19.904 101.386,11.152c24.901,31.056 19.904,76.486 -11.152,101.387Z" style="fill:#006d77;"/><path d="M1406.94,763.113c-12.909,10.35 -31.792,8.273 -42.142,-4.636c-10.351,-12.909 -8.273,-31.792 4.635,-42.143c12.909,-10.35 31.793,-8.273 42.143,4.636c10.35,12.909 8.273,31.792 -4.636,42.143Z" style="fill:#b56445;"/></g></svg>